<svg width="64" height="64" viewBox="0 0 64 64" fill="none" xmlns="http://www.w3.org/2000/svg">
  <path d="M42.9968 10H14.0032C12.8986 10 12 10.8954 12 12V39C12 40.1046 12.8954 41 14 41H43C44.1046 41 45 40.1046 45 39V12C45 10.8954 44.1014 10 42.9968 10Z" stroke="#222222" stroke-width="3" stroke-linecap="round" stroke-linejoin="round"/>
  <path d="M28.6957 42C28.6957 45.2777 26.0386 47.9348 22.761 47.9348C19.4833 47.9348 16.8262 45.2777 16.8262 42" stroke="#222222" stroke-width="3" stroke-linecap="round" stroke-linejoin="round"/>
  <path d="M46 20C46 19.4477 46.4477 19 47 19H54.6737C54.9709 19 55.2528 19.1322 55.4427 19.3608L61.769 26.9721C61.9183 27.1517 62 27.3778 62 27.6113V40C62 40.5523 61.5523 41 61 41H47C46.4477 41 46 40.5523 46 40V20Z" stroke="#222222" stroke-width="3" stroke-linecap="round" stroke-linejoin="round"/>
  <path d="M59.8261 42C59.8261 45.2777 57.169 47.9348 53.8913 47.9348C50.6136 47.9348 47.9565 45.2777 47.9565 42" stroke="#222222" stroke-width="3" stroke-linecap="round" stroke-linejoin="round"/>
  <line x1="6.6958" y1="32.4" x2="24.0436" y2="32.4" stroke="#222222" stroke-width="3"/>
  <line x1="-5.24537e-08" y1="25.4" x2="18" y2="25.4" stroke="#222222" stroke-width="3"/>
</svg>